SRRun01_grf
version=1
nRows=15
nColumns=19
inDegrees=no
endheader
time	ground_force_r_vx	ground_force_r_vy	ground_force_r_vz	ground_force_r_px	ground_force_r_py	ground_force_r_pz	ground_force_r_mx	ground_force_r_my	ground_force_r_mz	ground_force_l_vx	ground_force_l_vy	ground_force_l_vz	ground_force_l_px	ground_force_l_py	ground_force_l_pz	ground_force_l_mx	ground_force_l_my	ground_force_l_mz
    147.49900000	      0.00000000	      0.00000000	      0.00000000	      0.00000000	      0.00000000	      0.00000000	      0.00000000	      0.00000000	      0.00000000	   -194.49591538	   1643.92453405	    107.17935731	      1.08539327	      0.00000000	     -0.39172781	      0.00003439	     20.31986086	      0.00008279
    147.50000000	      0.00000000	      0.00000000	      0.00000000	      0.00000000	      0.00000000	      0.00000000	      0.00000000	      0.00000000	      0.00000000	   -186.46617075	   1648.73347823	    105.58042617	      1.08410779	      0.00000000	     -0.39165659	      0.00003482	     19.37591741	      0.00008156
    147.50100000	      0.00000000	      0.00000000	      0.00000000	      0.00000000	      0.00000000	      0.00000000	      0.00000000	      0.00000000	      0.00000000	   -177.52992616	   1653.43649435	    101.98045340	      1.08290481	      0.00000000	     -0.39165345	      0.00003517	     17.47273835	      0.00008042
    147.50200000	      0.00000000	      0.00000000	      0.00000000	      0.00000000	      0.00000000	      0.00000000	      0.00000000	      0.00000000	      0.00000000	   -168.48183739	   1658.04064110	     96.55352842	      1.08176568	      0.00000000	     -0.39172913	      0.00003543	     14.74111587	      0.00007965
    147.50300000	      0.00000000	      0.00000000	      0.00000000	      0.00000000	      0.00000000	      0.00000000	      0.00000000	      0.00000000	      0.00000000	   -160.06797797	   1662.55660042	     89.55208537	      1.08066205	      0.00000000	     -0.39188914	      0.00003560	     11.37952952	      0.00007945
    147.50400000	      0.00000000	      0.00000000	      0.00000000	      0.00000000	      0.00000000	      0.00000000	      0.00000000	      0.00000000	      0.00000000	   -152.91231262	   1666.99588038	     81.30176571	      1.07955742	      0.00000000	     -0.39213301	      0.00003569	      7.64065216	      0.00007995
    147.50500000	      0.00000000	      0.00000000	      0.00000000	      0.00000000	      0.00000000	      0.00000000	      0.00000000	      0.00000000	      0.00000000	   -147.45867306	   1671.36802876	     72.19251436	      1.07841034	      0.00000000	     -0.39245389	      0.00003570	      3.81306977	      0.00008117
    147.50600000	      0.00000000	      0.00000000	      0.00000000	      0.00000000	      0.00000000	      0.00000000	      0.00000000	      0.00000000	      0.00000000	   -143.93383312	   1675.67902802	     62.66526218	      1.07717871	      0.00000000	     -0.39283877	      0.00003564	      0.19947029	      0.00008302
    147.50700000	      0.00000000	      0.00000000	      0.00000000	      0.00000000	      0.00000000	      0.00000000	      0.00000000	      0.00000000	      0.00000000	   -142.33495757	   1679.93122076	     53.19394892	      1.07582434	      0.00000000	     -0.39326909	      0.00003554	     -2.90708707	      0.00008533
    147.50800000	      0.00000000	      0.00000000	      0.00000000	      0.00000000	      0.00000000	      0.00000000	      0.00000000	      0.00000000	      0.00000000	   -142.44207317	   1684.12421175	     44.26328077	      1.07431692	      0.00000000	     -0.39372205	      0.00003541	     -5.24698970	      0.00008784
    147.50900000	      0.00000000	      0.00000000	      0.00000000	      0.00000000	      0.00000000	      0.00000000	      0.00000000	      0.00000000	      0.00000000	   -143.85351098	   1688.25572879	     36.34330051	      1.07263667	      0.00000000	     -0.39417230	      0.00003524	     -6.61609049	      0.00009027
    147.51000000	      0.00000000	      0.00000000	      0.00000000	      0.00000000	      0.00000000	      0.00000000	      0.00000000	      0.00000000	      0.00000000	   -146.03975072	   1692.32165708	     29.86236222	      1.07077564	      0.00000000	     -0.39459400	      0.00003506	     -6.88407660	      0.00009236
    147.51100000	      0.00000000	      0.00000000	      0.00000000	      0.00000000	      0.00000000	      0.00000000	      0.00000000	      0.00000000	      0.00000000	   -148.40908630	   1696.31520863	     25.18042329	      1.06873758	      0.00000000	     -0.39496308	      0.00003486	     -6.00745036	      0.00009390
    147.51200000	      0.00000000	      0.00000000	      0.00000000	      0.00000000	      0.00000000	      0.00000000	      0.00000000	      0.00000000	      0.00000000	   -150.37733556	   1700.22586468	     22.56478713	      1.06653699	      0.00000000	     -0.39525949	      0.00003465	     -4.03569672	      0.00009480
    147.51300000	      0.00000000	      0.00000000	      0.00000000	      0.00000000	      0.00000000	      0.00000000	      0.00000000	      0.00000000	      0.00000000	   -151.43359098	   1704.03883405	     22.17052553	      1.06419753	      0.00000000	     -0.39546909	      0.00003444	     -1.10977125	      0.00009509
